<svg id="visual" viewBox="0 0 900 600" width="900" height="600" xmlns="http://www.w3.org/2000/svg" xmlns:xlink="http://www.w3.org/1999/xlink" version="1.1"><rect x="0" y="0" width="900" height="600" fill="#2c3639"></rect><defs><linearGradient id="grad1_0" x1="33.3%" y1="0%" x2="100%" y2="100%"><stop offset="20%" stop-color="#3f4e4f" stop-opacity="1"></stop><stop offset="80%" stop-color="#3f4e4f" stop-opacity="1"></stop></linearGradient></defs><defs><linearGradient id="grad1_1" x1="33.3%" y1="0%" x2="100%" y2="100%"><stop offset="20%" stop-color="#3f4e4f" stop-opacity="1"></stop><stop offset="80%" stop-color="#384648" stop-opacity="1"></stop></linearGradient></defs><defs><linearGradient id="grad1_2" x1="33.3%" y1="0%" x2="100%" y2="100%"><stop offset="20%" stop-color="#323e40" stop-opacity="1"></stop><stop offset="80%" stop-color="#384648" stop-opacity="1"></stop></linearGradient></defs><defs><linearGradient id="grad1_3" x1="33.3%" y1="0%" x2="100%" y2="100%"><stop offset="20%" stop-color="#323e40" stop-opacity="1"></stop><stop offset="80%" stop-color="#2c3639" stop-opacity="1"></stop></linearGradient></defs><defs><linearGradient id="grad2_0" x1="0%" y1="0%" x2="66.7%" y2="100%"><stop offset="20%" stop-color="#3f4e4f" stop-opacity="1"></stop><stop offset="80%" stop-color="#3f4e4f" stop-opacity="1"></stop></linearGradient></defs><defs><linearGradient id="grad2_1" x1="0%" y1="0%" x2="66.7%" y2="100%"><stop offset="20%" stop-color="#384648" stop-opacity="1"></stop><stop offset="80%" stop-color="#3f4e4f" stop-opacity="1"></stop></linearGradient></defs><defs><linearGradient id="grad2_2" x1="0%" y1="0%" x2="66.7%" y2="100%"><stop offset="20%" stop-color="#384648" stop-opacity="1"></stop><stop offset="80%" stop-color="#323e40" stop-opacity="1"></stop></linearGradient></defs><defs><linearGradient id="grad2_3" x1="0%" y1="0%" x2="66.7%" y2="100%"><stop offset="20%" stop-color="#2c3639" stop-opacity="1"></stop><stop offset="80%" stop-color="#323e40" stop-opacity="1"></stop></linearGradient></defs><g transform="translate(900, 0)"><path d="M0 459.7C-21.3 392.5 -42.7 325.3 -87.7 327.4C-132.8 329.6 -201.7 401.2 -228.5 395.8C-255.3 390.3 -240.1 307.8 -274.4 274.4C-308.6 241 -392.2 256.7 -398.1 229.9C-404 203 -332.1 133.7 -329.4 88.3C-326.7 42.9 -393.2 21.4 -459.7 0L0 0Z" fill="#2f3a3d"></path><path d="M0 344.8C-16 294.4 -32 243.9 -65.8 245.6C-99.6 247.2 -151.3 300.9 -171.4 296.8C-191.5 292.7 -180.1 230.8 -205.8 205.8C-231.4 180.7 -294.2 192.5 -298.6 172.4C-303 152.3 -249.1 100.2 -247 66.2C-245 32.1 -294.9 16.1 -344.8 0L0 0Z" fill="#354244"></path><path d="M0 229.9C-10.7 196.2 -21.3 162.6 -43.9 163.7C-66.4 164.8 -100.8 200.6 -114.2 197.9C-127.7 195.2 -120.1 153.9 -137.2 137.2C-154.3 120.5 -196.1 128.3 -199.1 114.9C-202 101.5 -166 66.8 -164.7 44.1C-163.3 21.4 -196.6 10.7 -229.9 0L0 0Z" fill="#3c4a4b"></path><path d="M0 114.9C-5.3 98.1 -10.7 81.3 -21.9 81.9C-33.2 82.4 -50.4 100.3 -57.1 98.9C-63.8 97.6 -60 76.9 -68.6 68.6C-77.1 60.2 -98.1 64.2 -99.5 57.5C-101 50.8 -83 33.4 -82.3 22.1C-81.7 10.7 -98.3 5.4 -114.9 0L0 0Z" fill="#3f4e4f"></path></g><g transform="translate(0, 600)"><path d="M0 -459.7C37.7 -454.9 75.4 -450.1 119 -444C162.6 -438 212.1 -430.6 224.5 -388.8C236.9 -347.1 212.3 -271.1 246.1 -246.1C279.8 -221.1 372 -247 394.9 -228C417.9 -209 371.6 -144.9 370.9 -99.4C370.2 -53.9 414.9 -26.9 459.7 0L0 0Z" fill="#2f3a3d"></path><path d="M0 -344.8C28.3 -341.2 56.5 -337.6 89.2 -333C121.9 -328.5 159 -322.9 168.4 -291.6C177.7 -260.3 159.2 -203.3 184.6 -184.6C209.9 -165.8 279 -185.3 296.2 -171C313.4 -156.7 278.7 -108.7 278.2 -74.5C277.6 -40.4 311.2 -20.2 344.8 0L0 0Z" fill="#354244"></path><path d="M0 -229.9C18.8 -227.5 37.7 -225.1 59.5 -222C81.3 -219 106 -215.3 112.2 -194.4C118.5 -173.6 106.2 -135.5 123 -123C139.9 -110.5 186 -123.5 197.5 -114C208.9 -104.5 185.8 -72.4 185.5 -49.7C185.1 -26.9 207.5 -13.5 229.9 0L0 0Z" fill="#3c4a4b"></path><path d="M0 -114.9C9.4 -113.7 18.8 -112.5 29.7 -111C40.6 -109.5 53 -107.6 56.1 -97.2C59.2 -86.8 53.1 -67.8 61.5 -61.5C70 -55.3 93 -61.8 98.7 -57C104.5 -52.2 92.9 -36.2 92.7 -24.8C92.5 -13.5 103.7 -6.7 114.9 0L0 0Z" fill="#3f4e4f"></path></g></svg>