<svg id="visual" viewBox="0 0 900 600" width="900" height="600" xmlns="http://www.w3.org/2000/svg" xmlns:xlink="http://www.w3.org/1999/xlink" version="1.1"><rect width="900" height="600" fill="#2c3639"></rect><g><g transform="translate(550 245)"><path d="M57.9 -16.9C66.2 6.9 58.2 38 38.7 51.8C19.2 65.7 -11.8 62.3 -33.4 46.5C-55 30.7 -67.3 2.4 -60.1 -19.7C-53 -41.9 -26.5 -57.9 -0.9 -57.6C24.7 -57.3 49.5 -40.7 57.9 -16.9Z" stroke="#f6f5f1" fill="none" stroke-width="20"></path></g><g transform="translate(105 19)"><path d="M42.4 -14.2C48.3 4.2 41.7 26.3 27 37C12.2 47.6 -10.7 46.9 -26.6 35.6C-42.4 24.3 -51.3 2.4 -45.7 -15.7C-40.1 -33.8 -20.1 -48.1 -0.9 -47.8C18.3 -47.5 36.6 -32.7 42.4 -14.2Z" stroke="#f6f5f1" fill="none" stroke-width="20"></path></g><g transform="translate(735 526)"><path d="M46.4 -13.8C52.9 5 46 29.4 28.6 42.8C11.2 56.3 -16.7 58.8 -34.2 46.2C-51.7 33.7 -58.9 6.1 -51.5 -13.8C-44 -33.8 -22 -46.2 -1 -45.8C20 -45.5 39.9 -32.5 46.4 -13.8Z" stroke="#f6f5f1" fill="none" stroke-width="20"></path></g><g transform="translate(451 542)"><path d="M48.5 -14.8C55.1 4.7 47.5 29.7 31.5 40.7C15.6 51.6 -8.7 48.5 -25.3 36.1C-42 23.7 -51 2.1 -45.5 -15.8C-40 -33.7 -20 -47.8 0.5 -48C20.9 -48.1 41.9 -34.3 48.5 -14.8Z" stroke="#f6f5f1" fill="none" stroke-width="20"></path></g></g></svg>