<svg id="visual" viewBox="0 0 900 600" width="900" height="600" xmlns="http://www.w3.org/2000/svg" xmlns:xlink="http://www.w3.org/1999/xlink" version="1.1"><rect x="0" y="0" width="900" height="600" fill="#2c3639"></rect><defs><linearGradient id="grad1_0" x1="33.3%" y1="100%" x2="100%" y2="0%"><stop offset="20%" stop-color="#966644" stop-opacity="1"></stop><stop offset="80%" stop-color="#966644" stop-opacity="1"></stop></linearGradient></defs><defs><linearGradient id="grad1_1" x1="33.3%" y1="100%" x2="100%" y2="0%"><stop offset="20%" stop-color="#966644" stop-opacity="1"></stop><stop offset="80%" stop-color="#585f3a" stop-opacity="1"></stop></linearGradient></defs><defs><linearGradient id="grad1_2" x1="33.3%" y1="100%" x2="100%" y2="0%"><stop offset="20%" stop-color="#314d43" stop-opacity="1"></stop><stop offset="80%" stop-color="#585f3a" stop-opacity="1"></stop></linearGradient></defs><defs><linearGradient id="grad1_3" x1="33.3%" y1="100%" x2="100%" y2="0%"><stop offset="20%" stop-color="#314d43" stop-opacity="1"></stop><stop offset="80%" stop-color="#2c3639" stop-opacity="1"></stop></linearGradient></defs><defs><linearGradient id="grad2_0" x1="0%" y1="100%" x2="66.7%" y2="0%"><stop offset="20%" stop-color="#966644" stop-opacity="1"></stop><stop offset="80%" stop-color="#966644" stop-opacity="1"></stop></linearGradient></defs><defs><linearGradient id="grad2_1" x1="0%" y1="100%" x2="66.7%" y2="0%"><stop offset="20%" stop-color="#585f3a" stop-opacity="1"></stop><stop offset="80%" stop-color="#966644" stop-opacity="1"></stop></linearGradient></defs><defs><linearGradient id="grad2_2" x1="0%" y1="100%" x2="66.7%" y2="0%"><stop offset="20%" stop-color="#585f3a" stop-opacity="1"></stop><stop offset="80%" stop-color="#314d43" stop-opacity="1"></stop></linearGradient></defs><defs><linearGradient id="grad2_3" x1="0%" y1="100%" x2="66.7%" y2="0%"><stop offset="20%" stop-color="#2c3639" stop-opacity="1"></stop><stop offset="80%" stop-color="#314d43" stop-opacity="1"></stop></linearGradient></defs><g transform="translate(900, 600)"><path d="M-486.7 0C-487.4 -71.2 -488 -142.4 -449.7 -186.3C-411.4 -230.1 -334.3 -246.5 -286.4 -286.4C-238.4 -326.2 -219.7 -389.5 -176.8 -426.8C-133.9 -464.1 -67 -475.4 0 -486.7L0 0Z" fill="#2c4242"></path><path d="M-365.1 0C-365.5 -53.4 -366 -106.8 -337.3 -139.7C-308.6 -172.6 -250.7 -184.9 -214.8 -214.8C-178.8 -244.7 -164.8 -292.1 -132.6 -320.1C-100.4 -348.1 -50.2 -356.6 0 -365.1L0 0Z" fill="#405740"></path><path d="M-243.4 0C-243.7 -35.6 -244 -71.2 -224.8 -93.1C-205.7 -115 -167.2 -123.3 -143.2 -143.2C-119.2 -163.1 -109.8 -194.8 -88.4 -213.4C-67 -232.1 -33.5 -237.7 0 -243.4L0 0Z" fill="#76643a"></path><path d="M-121.7 0C-121.8 -17.8 -122 -35.6 -112.4 -46.6C-102.9 -57.5 -83.6 -61.6 -71.6 -71.6C-59.6 -81.6 -54.9 -97.4 -44.2 -106.7C-33.5 -116 -16.7 -118.9 0 -121.7L0 0Z" fill="#966644"></path></g><g transform="translate(0, 0)"><path d="M486.7 0C466.4 56.9 446.1 113.9 426.8 176.8C407.5 239.7 389.2 308.7 344.2 344.2C299.2 379.7 227.5 381.8 165.7 400C103.9 418.2 51.9 452.5 0 486.7L0 0Z" fill="#2c4242"></path><path d="M365.1 0C349.8 42.7 334.6 85.4 320.1 132.6C305.6 179.8 291.9 231.5 258.1 258.1C224.4 284.8 170.6 286.4 124.3 300C77.9 313.7 39 339.4 0 365.1L0 0Z" fill="#405740"></path><path d="M243.4 0C233.2 28.5 223.1 56.9 213.4 88.4C203.8 119.9 194.6 154.3 172.1 172.1C149.6 189.9 113.8 190.9 82.9 200C51.9 209.1 26 226.2 0 243.4L0 0Z" fill="#76643a"></path><path d="M121.7 0C116.6 14.2 111.5 28.5 106.7 44.2C101.9 59.9 97.3 77.2 86 86C74.8 94.9 56.9 95.5 41.4 100C26 104.6 13 113.1 0 121.7L0 0Z" fill="#966644"></path></g></svg>