<svg id="visual" viewBox="0 0 900 600" width="900" height="600" xmlns="http://www.w3.org/2000/svg" xmlns:xlink="http://www.w3.org/1999/xlink" version="1.1"><rect x="0" y="0" width="900" height="600" fill="#2c3639"></rect><path d="M422 600L357 600L357 514L408 514L408 429L501 429L501 343L449 343L449 257L398 257L398 171L477 171L477 86L486 86L486 0L900 0L900 86L900 86L900 171L900 171L900 257L900 257L900 343L900 343L900 429L900 429L900 514L900 514L900 600L900 600Z" fill="#3f4e4f"></path><path d="M442 600L516 600L516 514L563 514L563 429L551 429L551 343L513 343L513 257L525 257L525 171L541 171L541 86L566 86L566 0L900 0L900 86L900 86L900 171L900 171L900 257L900 257L900 343L900 343L900 429L900 429L900 514L900 514L900 600L900 600Z" fill="#516347"></path><path d="M596 600L605 600L605 514L642 514L642 429L574 429L574 343L587 343L587 257L602 257L602 171L586 171L586 86L528 86L528 0L900 0L900 86L900 86L900 171L900 171L900 257L900 257L900 343L900 343L900 429L900 429L900 514L900 514L900 600L900 600Z" fill="#966644"></path><path d="M662 600L684 600L684 514L681 514L681 429L684 429L684 343L670 343L670 257L688 257L688 171L716 171L716 86L609 86L609 0L900 0L900 86L900 86L900 171L900 171L900 257L900 257L900 343L900 343L900 429L900 429L900 514L900 514L900 600L900 600Z" fill="#966644"></path><path d="M719 600L746 600L746 514L696 514L696 429L710 429L710 343L705 343L705 257L765 257L765 171L735 171L735 86L771 86L771 0L900 0L900 86L900 86L900 171L900 171L900 257L900 257L900 343L900 343L900 429L900 429L900 514L900 514L900 600L900 600Z" fill="#516347"></path><path d="M781 600L817 600L817 514L831 514L831 429L843 429L843 343L767 343L767 257L838 257L838 171L820 171L820 86L831 86L831 0L900 0L900 86L900 86L900 171L900 171L900 257L900 257L900 343L900 343L900 429L900 429L900 514L900 514L900 600L900 600Z" fill="#3f4e4f"></path></svg>