<svg id="visual" viewBox="0 0 900 600" width="900" height="600" xmlns="http://www.w3.org/2000/svg" xmlns:xlink="http://www.w3.org/1999/xlink" version="1.1"><g stroke-width="1" stroke-linejoin="bevel"><path d="M433 266L531 184L428 211Z" fill="#2e383b" stroke="#2e383b"></path><path d="M433 266L526 291L531 184Z" fill="#3d4c4d" stroke="#3d4c4d"></path><path d="M531 184L496 118L428 211Z" fill="#313d40" stroke="#313d40"></path><path d="M526 291L602 192L531 184Z" fill="#3d4c4d" stroke="#3d4c4d"></path><path d="M531 184L619 61L496 118Z" fill="#3f4e4f" stroke="#3f4e4f"></path><path d="M526 291L599 302L602 192Z" fill="#2c3639" stroke="#2c3639"></path><path d="M326 119L318 200L428 211Z" fill="#394748" stroke="#394748"></path><path d="M428 211L318 200L433 266Z" fill="#313d40" stroke="#313d40"></path><path d="M427 423L459 424L433 266Z" fill="#2c3639" stroke="#2c3639"></path><path d="M433 266L459 424L526 291Z" fill="#334042" stroke="#334042"></path><path d="M526 291L566 426L599 302Z" fill="#2e383b" stroke="#2e383b"></path><path d="M496 118L385 65L428 211Z" fill="#374446" stroke="#374446"></path><path d="M385 65L326 119L428 211Z" fill="#2c3639" stroke="#2c3639"></path><path d="M259 338L427 423L433 266Z" fill="#3b494b" stroke="#3b494b"></path><path d="M459 424L566 426L526 291Z" fill="#3f4e4f" stroke="#3f4e4f"></path><path d="M706 83L619 61L602 192Z" fill="#313d40" stroke="#313d40"></path><path d="M602 192L619 61L531 184Z" fill="#334042" stroke="#334042"></path><path d="M496 118L537 0L385 65Z" fill="#3b494b" stroke="#3b494b"></path><path d="M566 426L663 387L599 302Z" fill="#2e383b" stroke="#2e383b"></path><path d="M599 302L738 291L602 192Z" fill="#3d4c4d" stroke="#3d4c4d"></path><path d="M619 61L537 0L496 118Z" fill="#2c3639" stroke="#2c3639"></path><path d="M619 61L561 0L537 0Z" fill="#334042" stroke="#334042"></path><path d="M179 276L259 338L318 200Z" fill="#3f4e4f" stroke="#3f4e4f"></path><path d="M318 200L259 338L433 266Z" fill="#303b3d" stroke="#303b3d"></path><path d="M663 387L738 291L599 302Z" fill="#334042" stroke="#334042"></path><path d="M427 423L404 476L459 424Z" fill="#3d4c4d" stroke="#3d4c4d"></path><path d="M459 424L572 478L566 426Z" fill="#303b3d" stroke="#303b3d"></path><path d="M318 479L404 476L427 423Z" fill="#303b3d" stroke="#303b3d"></path><path d="M480 539L572 478L459 424Z" fill="#303b3d" stroke="#303b3d"></path><path d="M566 426L572 478L663 387Z" fill="#3b494b" stroke="#3b494b"></path><path d="M738 291L738 159L602 192Z" fill="#3f4e4f" stroke="#3f4e4f"></path><path d="M619 61L674 0L561 0Z" fill="#394748" stroke="#394748"></path><path d="M537 0L370 0L385 65Z" fill="#313d40" stroke="#313d40"></path><path d="M385 65L304 0L326 119Z" fill="#2c3639" stroke="#2c3639"></path><path d="M738 159L706 83L602 192Z" fill="#2e383b" stroke="#2e383b"></path><path d="M259 338L276 401L427 423Z" fill="#303b3d" stroke="#303b3d"></path><path d="M203 96L203 190L326 119Z" fill="#303b3d" stroke="#303b3d"></path><path d="M326 119L203 190L318 200Z" fill="#334042" stroke="#334042"></path><path d="M259 338L231 440L276 401Z" fill="#3d4c4d" stroke="#3d4c4d"></path><path d="M370 0L304 0L385 65Z" fill="#313d40" stroke="#313d40"></path><path d="M790 85L674 0L706 83Z" fill="#334042" stroke="#334042"></path><path d="M706 83L674 0L619 61Z" fill="#3f4e4f" stroke="#3f4e4f"></path><path d="M276 401L318 479L427 423Z" fill="#354244" stroke="#354244"></path><path d="M404 476L480 539L459 424Z" fill="#3d4c4d" stroke="#3d4c4d"></path><path d="M379 600L480 539L404 476Z" fill="#313d40" stroke="#313d40"></path><path d="M203 190L179 276L318 200Z" fill="#3f4e4f" stroke="#3f4e4f"></path><path d="M276 401L231 440L318 479Z" fill="#2c3639" stroke="#2c3639"></path><path d="M304 0L203 96L326 119Z" fill="#3d4c4d" stroke="#3d4c4d"></path><path d="M93 221L135 288L179 276Z" fill="#374446" stroke="#374446"></path><path d="M824 328L816 208L738 291Z" fill="#3d4c4d" stroke="#3d4c4d"></path><path d="M738 291L816 208L738 159Z" fill="#334042" stroke="#334042"></path><path d="M738 159L790 85L706 83Z" fill="#3d4c4d" stroke="#3d4c4d"></path><path d="M135 288L231 440L259 338Z" fill="#313d40" stroke="#313d40"></path><path d="M816 208L790 85L738 159Z" fill="#3d4c4d" stroke="#3d4c4d"></path><path d="M813 419L824 328L738 291Z" fill="#354244" stroke="#354244"></path><path d="M813 419L738 291L663 387Z" fill="#313d40" stroke="#313d40"></path><path d="M706 534L663 387L572 478Z" fill="#374446" stroke="#374446"></path><path d="M93 221L179 276L203 190Z" fill="#3f4e4f" stroke="#3f4e4f"></path><path d="M179 276L135 288L259 338Z" fill="#2c3639" stroke="#2c3639"></path><path d="M379 600L508 600L480 539Z" fill="#3f4e4f" stroke="#3f4e4f"></path><path d="M480 539L585 600L572 478Z" fill="#374446" stroke="#374446"></path><path d="M379 600L404 476L318 479Z" fill="#2e383b" stroke="#2e383b"></path><path d="M585 600L706 534L572 478Z" fill="#394748" stroke="#394748"></path><path d="M706 534L813 419L663 387Z" fill="#394748" stroke="#394748"></path><path d="M304 0L192 0L203 96Z" fill="#374446" stroke="#374446"></path><path d="M60 102L93 221L203 190Z" fill="#334042" stroke="#334042"></path><path d="M508 600L585 600L480 539Z" fill="#3d4c4d" stroke="#3d4c4d"></path><path d="M314 600L379 600L318 479Z" fill="#394748" stroke="#394748"></path><path d="M83 498L239 526L231 440Z" fill="#374446" stroke="#374446"></path><path d="M231 440L239 526L318 479Z" fill="#2e383b" stroke="#2e383b"></path><path d="M60 102L203 190L203 96Z" fill="#2c3639" stroke="#2c3639"></path><path d="M135 288L61 415L231 440Z" fill="#2e383b" stroke="#2e383b"></path><path d="M239 526L314 600L318 479Z" fill="#2c3639" stroke="#2c3639"></path><path d="M900 98L829 0L790 85Z" fill="#374446" stroke="#374446"></path><path d="M790 85L829 0L674 0Z" fill="#354244" stroke="#354244"></path><path d="M900 173L790 85L816 208Z" fill="#2e383b" stroke="#2e383b"></path><path d="M900 394L900 279L824 328Z" fill="#374446" stroke="#374446"></path><path d="M824 328L900 279L816 208Z" fill="#3d4c4d" stroke="#3d4c4d"></path><path d="M900 279L900 173L816 208Z" fill="#303b3d" stroke="#303b3d"></path><path d="M706 534L812 506L813 419Z" fill="#313d40" stroke="#313d40"></path><path d="M813 419L900 394L824 328Z" fill="#303b3d" stroke="#303b3d"></path><path d="M781 600L812 506L706 534Z" fill="#3b494b" stroke="#3b494b"></path><path d="M192 0L134 0L203 96Z" fill="#303b3d" stroke="#303b3d"></path><path d="M900 173L900 98L790 85Z" fill="#2e383b" stroke="#2e383b"></path><path d="M585 600L731 600L706 534Z" fill="#313d40" stroke="#313d40"></path><path d="M900 515L900 394L813 419Z" fill="#2e383b" stroke="#2e383b"></path><path d="M134 0L60 102L203 96Z" fill="#374446" stroke="#374446"></path><path d="M0 281L135 288L93 221Z" fill="#2e383b" stroke="#2e383b"></path><path d="M0 378L61 415L135 288Z" fill="#3d4c4d" stroke="#3d4c4d"></path><path d="M239 526L194 600L314 600Z" fill="#2c3639" stroke="#2c3639"></path><path d="M731 600L781 600L706 534Z" fill="#334042" stroke="#334042"></path><path d="M812 506L900 515L813 419Z" fill="#313d40" stroke="#313d40"></path><path d="M83 498L194 600L239 526Z" fill="#374446" stroke="#374446"></path><path d="M900 98L900 0L829 0Z" fill="#303b3d" stroke="#303b3d"></path><path d="M61 415L83 498L231 440Z" fill="#334042" stroke="#334042"></path><path d="M0 138L0 224L93 221Z" fill="#2c3639" stroke="#2c3639"></path><path d="M61 415L0 461L83 498Z" fill="#334042" stroke="#334042"></path><path d="M0 224L0 281L93 221Z" fill="#2c3639" stroke="#2c3639"></path><path d="M60 102L0 138L93 221Z" fill="#313d40" stroke="#313d40"></path><path d="M0 0L0 138L60 102Z" fill="#2c3639" stroke="#2c3639"></path><path d="M900 600L900 515L812 506Z" fill="#3b494b" stroke="#3b494b"></path><path d="M0 281L0 378L135 288Z" fill="#313d40" stroke="#313d40"></path><path d="M83 498L116 600L194 600Z" fill="#303b3d" stroke="#303b3d"></path><path d="M0 600L116 600L83 498Z" fill="#3b494b" stroke="#3b494b"></path><path d="M0 378L0 461L61 415Z" fill="#2e383b" stroke="#2e383b"></path><path d="M134 0L0 0L60 102Z" fill="#313d40" stroke="#313d40"></path><path d="M781 600L900 600L812 506Z" fill="#2e383b" stroke="#2e383b"></path><path d="M0 461L0 600L83 498Z" fill="#2e383b" stroke="#2e383b"></path></g></svg>