<svg id="visual" viewBox="0 0 900 600" width="900" height="600" xmlns="http://www.w3.org/2000/svg" xmlns:xlink="http://www.w3.org/1999/xlink" version="1.1"><path d="M0 55L75 49L150 97L225 235L300 277L375 163L450 43L525 79L600 55L675 103L750 277L825 73L900 169L900 0L825 0L750 0L675 0L600 0L525 0L450 0L375 0L300 0L225 0L150 0L75 0L0 0Z" fill="#2c3639"></path><path d="M0 127L75 109L150 163L225 289L300 289L375 235L450 79L525 139L600 115L675 169L750 307L825 109L900 181L900 167L825 71L750 275L675 101L600 53L525 77L450 41L375 161L300 275L225 233L150 95L75 47L0 53Z" fill="#324f43"></path><path d="M0 217L75 139L150 235L225 355L300 319L375 349L450 169L525 217L600 139L675 187L750 397L825 193L900 319L900 179L825 107L750 305L675 167L600 113L525 137L450 77L375 233L300 287L225 287L150 161L75 107L0 125Z" fill="#60613a"></path><path d="M0 247L75 205L150 271L225 379L300 337L375 439L450 205L525 277L600 193L675 259L750 457L825 277L900 349L900 317L825 191L750 395L675 185L600 137L525 215L450 167L375 347L300 317L225 353L150 233L75 137L0 215Z" fill="#966644"></path><path d="M0 517L75 433L150 457L225 517L300 445L375 499L450 427L525 439L600 439L675 451L750 523L825 469L900 415L900 347L825 275L750 455L675 257L600 191L525 275L450 203L375 437L300 335L225 377L150 269L75 203L0 245Z" fill="#966644"></path><path d="M0 535L75 499L150 493L225 541L300 457L375 547L450 469L525 469L600 487L675 499L750 547L825 505L900 433L900 413L825 467L750 521L675 449L600 437L525 437L450 425L375 497L300 443L225 515L150 455L75 431L0 515Z" fill="#60613a"></path><path d="M0 553L75 577L150 529L225 577L300 589L375 577L450 583L525 571L600 571L675 529L750 577L825 529L900 559L900 431L825 503L750 545L675 497L600 485L525 467L450 467L375 545L300 455L225 539L150 491L75 497L0 533Z" fill="#324f43"></path><path d="M0 601L75 601L150 601L225 601L300 601L375 601L450 601L525 601L600 601L675 601L750 601L825 601L900 601L900 557L825 527L750 575L675 527L600 569L525 569L450 581L375 575L300 587L225 575L150 527L75 575L0 551Z" fill="#2c3639"></path></svg>