<svg id="visual" viewBox="0 0 900 600" width="900" height="600" xmlns="http://www.w3.org/2000/svg" xmlns:xlink="http://www.w3.org/1999/xlink" version="1.1"><rect x="0" y="0" width="900" height="600" fill="#2c3639"></rect><g transform="translate(472.28290094221006 264.0583238207154)"><path d="M24.4 -45.5C38.6 -28.8 62.1 -33.9 88.2 -25.9C114.4 -17.8 143.3 3.5 145.6 24.3C147.8 45.1 123.4 65.4 104.3 93.9C85.2 122.4 71.3 159.1 47.2 170.7C23.1 182.3 -11.3 168.9 -28.4 142.8C-45.5 116.7 -45.4 78 -75 57.4C-104.5 36.9 -163.6 34.4 -182.9 15.6C-202.1 -3.2 -181.6 -38.3 -148.5 -50C-115.4 -61.6 -69.9 -49.7 -43.1 -60.7C-16.2 -71.6 -8.1 -105.3 -1.5 -102.9C5.1 -100.6 10.1 -62.1 24.4 -45.5" fill="#dcd7c9"></path></g></svg>