<svg id="visual" viewBox="0 0 960 540" width="960" height="540" xmlns="http://www.w3.org/2000/svg" xmlns:xlink="http://www.w3.org/1999/xlink" version="1.1"><rect x="0" y="0" width="960" height="540" fill="#2c3639"></rect><path d="M0 341L137 375L274 366L411 369L549 395L686 374L823 364L960 396L960 541L823 541L686 541L549 541L411 541L274 541L137 541L0 541Z" fill="#966644"></path><path d="M0 402L137 427L274 388L411 384L549 399L686 371L823 391L960 418L960 541L823 541L686 541L549 541L411 541L274 541L137 541L0 541Z" fill="#bfad92"></path><path d="M0 400L137 445L274 443L411 455L549 407L686 418L823 436L960 406L960 541L823 541L686 541L549 541L411 541L274 541L137 541L0 541Z" fill="#dcd7c9"></path><path d="M0 482L137 443L274 466L411 474L549 450L686 447L823 438L960 473L960 541L823 541L686 541L549 541L411 541L274 541L137 541L0 541Z" fill="#bfad92"></path><path d="M0 480L137 480L274 502L411 506L549 477L686 476L823 490L960 509L960 541L823 541L686 541L549 541L411 541L274 541L137 541L0 541Z" fill="#966644"></path></svg>