<svg id="visual" viewBox="0 0 900 600" width="900" height="600" xmlns="http://www.w3.org/2000/svg" xmlns:xlink="http://www.w3.org/1999/xlink" version="1.1"><rect x="0" y="0" width="900" height="600" fill="#2c3639"></rect><path d="M487 600L442 600L442 514L401 514L401 429L399 429L399 343L496 343L496 257L469 257L469 171L479 171L479 86L470 86L470 0L900 0L900 86L900 86L900 171L900 171L900 257L900 257L900 343L900 343L900 429L900 429L900 514L900 514L900 600L900 600Z" fill="#966644"></path><path d="M449 600L497 600L497 514L474 514L474 429L577 429L577 343L487 343L487 257L433 257L433 171L520 171L520 86L576 86L576 0L900 0L900 86L900 86L900 171L900 171L900 257L900 257L900 343L900 343L900 429L900 429L900 514L900 514L900 600L900 600Z" fill="#516347"></path><path d="M611 600L596 600L596 514L533 514L533 429L575 429L575 343L571 343L571 257L599 257L599 171L601 171L601 86L640 86L640 0L900 0L900 86L900 86L900 171L900 171L900 257L900 257L900 343L900 343L900 429L900 429L900 514L900 514L900 600L900 600Z" fill="#3f4e4f"></path><path d="M650 600L713 600L713 514L606 514L606 429L613 429L613 343L687 343L687 257L601 257L601 171L708 171L708 86L621 86L621 0L900 0L900 86L900 86L900 171L900 171L900 257L900 257L900 343L900 343L900 429L900 429L900 514L900 514L900 600L900 600Z" fill="#3f4e4f"></path><path d="M690 600L702 600L702 514L758 514L758 429L708 429L708 343L760 343L760 257L721 257L721 171L690 171L690 86L738 86L738 0L900 0L900 86L900 86L900 171L900 171L900 257L900 257L900 343L900 343L900 429L900 429L900 514L900 514L900 600L900 600Z" fill="#516347"></path><path d="M792 600L834 600L834 514L851 514L851 429L795 429L795 343L807 343L807 257L820 257L820 171L778 171L778 86L817 86L817 0L900 0L900 86L900 86L900 171L900 171L900 257L900 257L900 343L900 343L900 429L900 429L900 514L900 514L900 600L900 600Z" fill="#966644"></path></svg>